<svg xmlns="http://www.w3.org/2000/svg" viewBox="0 0 420.03 129.17"><path d="M420 9.88c-.24 13.86-39.46 30.73-39.2 54.55.3 23.15 37.96 35.73 39.2 53.57a10.71 10.71 0 01-10.26 11c-15.2.68-32.13-52.29-54.2-44.67-20.47 7.06-33.71 43.19-51.63 44.83-5.61.41-9.92-5.18-9.68-10.92.72-17.61 42.35-29 42.17-53.81-.17-23.77-43.22-39.93-42.65-55.43.19-5.09 3.19-8 8-8.59 21.24-2.75 34 46 56.21 45C377.2 44.58 391.83.63 409.49 0c5.34-.18 10.66 3.22 10.51 9.88z" fill="#e6007e"/><path d="M28.34 38.51v9.65h.24C33 40.68 39.43 36.7 48.35 36.7c7.6 0 13.63 3.5 16.4 10.73A22.36 22.36 0 0183.81 36.7c12.42 0 18.33 6.39 18.33 17.73v25.68c0 3.38.84 5.19 4.34 5.19h4.1v9.65H76V85.3h1.81c3.5 0 4.34-1.81 4.34-5.19V57.93c0-4.22-2-10.37-7.59-10.37-6.51 0-8.68 3.74-8.68 9v25.96c0 2.29.6 2.78 4.34 2.78h1.57v9.65h-32V85.3h1.69c3.5 0 4.34-1.45 4.34-5.19V57.93c0-6-.72-10.37-7.6-10.37-6.51 0-8.68 5.18-8.68 10.85v24.11c0 1.69.85 2.78 4.34 2.78h1.93v9.65H0V85.3h5.18c3.5 0 4.34-1.81 4.34-5.19V53.34c0-3.38-.84-5.19-4.34-5.19H.36v-9.64zm144.81 28.22c0 19.29-13.14 30-31.11 30s-31.11-10.73-31.11-30 13.14-30 31.11-30 31.11 10.7 31.11 30zm-34.72-47.27a9.53 9.53 0 11-9.53-9.53 9.47 9.47 0 019.53 9.53zm-6.15 47.27c0 14.23 2.53 20.38 9.77 20.38s9.77-6.15 9.77-20.38-2.54-20.38-9.82-20.38-9.72 6.15-9.72 20.38zM165 19.46a9.53 9.53 0 11-9.53-9.53 9.47 9.47 0 019.53 9.53zm37 19.05v9.65h.24c4.44-7.48 10.83-11.46 19.76-11.46 7.6 0 13.63 3.5 16.4 10.73a22.35 22.35 0 0119.04-10.73c12.42 0 18.33 6.39 18.33 17.73v25.68c0 3.38.85 5.19 4.34 5.19h4.1v9.65h-34.6V85.3h1.81c3.5 0 4.34-1.81 4.34-5.19V57.93c0-4.22-2-10.37-7.6-10.37-6.51 0-8.68 3.74-8.68 9v25.96c0 2.29.6 2.78 4.34 2.78h1.56v9.65h-32V85.3h1.69c3.49 0 4.34-1.45 4.34-5.19V57.93c0-6-.72-10.37-7.6-10.37-6.51 0-8.68 5.18-8.68 10.85v24.11c0 1.69.85 2.78 4.34 2.78h1.93v9.65h-35.76V85.3h5.19c3.5 0 4.34-1.81 4.34-5.19V53.34c0-3.38-.84-5.19-4.34-5.19H174v-9.64zm152.15 35.81V81c0 12.06-4.58 15.79-18 15.79-5.79 0-11.46-2.77-13.39-8.56-4.94 5.91-10.73 8.56-18.57 8.56-11.45 0-18.57-4.46-18.57-16.76 0-22.79 35.81-9.4 35.81-25.2 0-8-5.07-10.61-11.7-10.61a17.69 17.69 0 00-9.53 2.29v.24c3.62.48 7.6 2.41 7.6 6.63 0 5.3-4.7 7.6-9.53 7.6-5.67 0-10.49-3.26-10.49-8.92 0-13.39 18.21-15.32 28-15.32 16.52 0 25.44 3.86 25.44 21.46v22.39c0 3.5.37 4.83 2.29 4.83 2.65 0 4-1.57 4-8.32v-2.78zm-32.92-7.23c-5.79 3.38-15.56 4.1-15.56 11.58 0 4.94 3.14 6.75 6.87 6.75 6.87 0 8.68-5.06 8.68-10.13z" fill="#fff"/></svg>