<svg xmlns="http://www.w3.org/2000/svg" viewBox="0 0 423.73 80.82"><path d="M51.94 76.07 27.85 45.84v30.23H11.51V10.32h16.34v28.34l22.58-28.34h20.4L44.19 42.44l28.25 33.63ZM149.4 76.07a39.18 39.18 0 0 1-10.77-4.35V55.38a58.22 58.22 0 0 0 11.43 4.77A40.53 40.53 0 0 0 162 62.27c3 0 5.24-.45 6.66-1.37a4.73 4.73 0 0 0 2.13-4.29 5 5 0 0 0-2-4.3 21.79 21.79 0 0 0-6.89-2.79l-3.78-1a54.11 54.11 0 0 1-10.54-3.78 17.38 17.38 0 0 1-6.58-5.61 15.41 15.41 0 0 1-2.46-9.07q0-9.63 6.8-15.45t20-5.81a45.84 45.84 0 0 1 10.79 1.2 24.57 24.57 0 0 1 8.12 3.35v15.1a48.43 48.43 0 0 0-9.87-4 36.42 36.42 0 0 0-10.15-1.65q-8 0-8 5.29a4 4 0 0 0 2 3.59 26.39 26.39 0 0 0 6.8 2.45l3.78 1a50.88 50.88 0 0 1 10.72 3.73 16.71 16.71 0 0 1 6.71 6.09q2.51 4 2.51 10.39 0 10-6.57 16.16t-20 6.14a52.77 52.77 0 0 1-12.78-1.57ZM263.88 76.07h-16.25V36.86l-17.94 31h-.29l-17.85-30.8v39h-15.5V10.32h17.58l16.15 28.34 16.15-28.34h17.95ZM285.71 73.42a28.8 28.8 0 0 1-11.67-12 38.29 38.29 0 0 1-4.16-18.28A37.56 37.56 0 0 1 274.09 25a29.49 29.49 0 0 1 11.71-12A34.75 34.75 0 0 1 303 8.8a35.25 35.25 0 0 1 17.38 4.2 28.89 28.89 0 0 1 11.66 12 38.2 38.2 0 0 1 4.16 18.28 37.67 37.67 0 0 1-4.2 18.14 29.52 29.52 0 0 1-11.72 12A34.59 34.59 0 0 1 303 77.58a35.18 35.18 0 0 1-17.29-4.16Zm29.61-16.58Q320 51.79 320 43.19t-4.63-13.65q-4.67-5.05-12.37-5.05t-12.28 5.05q-4.63 5.06-4.63 13.65t4.63 13.65A15.86 15.86 0 0 0 303 61.9q7.69 0 12.32-5.06ZM351.69 76.07a39.44 39.44 0 0 1-10.77-4.35V55.38a58.59 58.59 0 0 0 11.44 4.77 40.53 40.53 0 0 0 11.9 2.12c3 0 5.24-.45 6.66-1.37a4.72 4.72 0 0 0 2.08-4.29 5 5 0 0 0-2-4.3 21.76 21.76 0 0 0-6.9-2.79l-3.77-1a54.11 54.11 0 0 1-10.54-3.78 17.38 17.38 0 0 1-6.56-5.57 15.41 15.41 0 0 1-2.46-9.07q0-9.63 6.8-15.45t20-5.81A46 46 0 0 1 378.43 10a24.57 24.57 0 0 1 8.12 3.35v15.1a48.43 48.43 0 0 0-9.87-4 36.42 36.42 0 0 0-10.15-1.65q-8 0-8 5.29a4 4 0 0 0 2 3.59 26.39 26.39 0 0 0 6.8 2.45l3.78 1a50.88 50.88 0 0 1 10.72 3.73 16.71 16.71 0 0 1 6.71 6.09q2.5 4 2.5 10.39 0 10-6.56 16.16t-20 6.14a52.85 52.85 0 0 1-12.79-1.57Z"/><path d="M421.55 13.11v.18a11 11 0 0 1-4.62 9V4.34a11 11 0 0 1 4.62 8.77Zm-11-10.8a11 11 0 0 1 3.95.69v9h-9a1.22 1.22 0 0 0-1.14 1.22v9.08a11 11 0 0 1-4.76-8.87v-.18a11 11 0 0 1 10.8-11Zm3.93 12.16v9.09a11.14 11.14 0 0 1-3.74.72h-.19a11 11 0 0 1-3.8-.68v-9.12Z" style="fill:#111;fill-rule:evenodd"/><path d="M128.82 25.64a28.8 28.8 0 0 0-11.67-12 35.18 35.18 0 0 0-17.33-4.11 34.59 34.59 0 0 0-17.24 4.21 29.45 29.45 0 0 0-11.72 12 37.67 37.67 0 0 0-4.2 18.23 38.2 38.2 0 0 0 4.16 18.23 28.83 28.83 0 0 0 11.66 12 35.25 35.25 0 0 0 17.34 4.16 34.75 34.75 0 0 0 17.24-4.21 29.43 29.43 0 0 0 11.71-11.95A37.67 37.67 0 0 0 133 43.92a38.32 38.32 0 0 0-4.18-18.28Zm-22.18 25.1L99.82 74.4 93 50.74l-23.66-6.82L93 37.1l6.82-23.66 6.82 23.66 23.66 6.82Z"/></svg>