<svg xmlns="http://www.w3.org/2000/svg" viewBox="0 0 96 19.985"><path fill="#32a7cb" d="M79.338 19.885c-.5 0-.899-.4-.899-.899V4.097c0-.5.4-.899.899-.899s.899.4.899.899v14.888c.001.5-.399.9-.899.9zM54.458 3.297h6.995c.5 0 .899.4.899.899s-.4.899-.899.899h-6.995V3.297zm0 14.889h6.995c.5 0 .899.4.899.899 0 .5-.4.899-.899.899h-6.995v-1.798zm0-7.494h5.096c.5 0 .899.4.899.899s-.4.899-.899.899h-5.096v-1.798zm12.39 9.193c-.5 0-.899-.4-.899-.899V4.097c0-.5.4-.899.899-.899s.899.4.899.899v15.788h-.899zm1.699-1.699h5.895c.5 0 .899.4.899.899 0 .5-.4.899-.899.899h-5.895v-1.798zM.899 3.297c-.499 0-.899.4-.899.9v14.789c0 .5.4.899.899.899s.899-.4.899-.899V4.097c-.099-.4-.499-.8-.899-.8zM13.09 5.496L7.794 17.087 2.598 5.596v4.097l4.397 9.692s0 .1.1.1c0 0 0 .1.1.1l.1.1s.1 0 .1.1h.799s.1 0 .1-.1l.1-.1s0-.1.1-.1c0 0 0-.1.1-.1l4.497-9.792-.001-4.097zm13.689-.6a6.695 6.695 0 010 13.39 6.695 6.695 0 010-13.39m0-1.698c-4.696 0-8.393 3.797-8.393 8.393s3.797 8.393 8.393 8.393 8.393-3.797 8.393-8.393-3.696-8.393-8.393-8.393zM23.881 0c-.5 0-.999.4-.999.999 0 .5.4.999.999.999.5 0 .999-.4.999-.999S24.481 0 23.881 0zm0 0c-.6 0-.999.5-.999.999 0 .6.5.999.999.999.6 0 .999-.5.999-.999C24.981.4 24.481 0 23.881 0zm5.796 0c-.6 0-.999.5-.999.999 0 .6.5.999.999.999.6 0 .999-.5.999-.999 0-.599-.399-.999-.999-.999zm0 0c-.5 0-.999.4-.999.999 0 .5.4.999.999.999s.999-.4.999-.999C30.576.4 30.177 0 29.677 0zm23.282 3.297c-.699 0-.999.4-.999.899v14.789c0 .5.4.799.899.799h.899V3.297h-.799zm-13.889 0c-.699 0-.999.4-.999.899v14.789c0 .5.4.799.899.799h.899V3.297h-.799zm6.695 7.095c.799-.699 1.199-1.799 1.199-2.898 0-2.298-1.899-4.197-4.197-4.197h-2.098v1.699h2.098c1.299 0 2.398 1.099 2.398 2.398 0 1.299-1.099 2.398-2.398 2.398h-2.198v1.699h2.898c1.799 0 3.297 1.499 3.297 3.297s-1.499 3.297-3.297 3.297h-2.898v1.699h2.898c2.798 0 4.996-2.198 4.996-4.996.099-1.898-1-3.597-2.698-4.396zM14.789 3.297c-.5 0-.899.4-.899.899v14.789c0 .5.4.899.899.899.5 0 .899-.4.899-.899V4.097c0-.4-.4-.8-.899-.8zm81.037 15.289c.3.4.2.899-.2 1.099-.1.1-.3.1-.5.1h-.1c-.3 0-.5-.1-.699-.4L83.735 4.397c-.3-.4-.2-.899.2-1.099.1-.1.3-.1.5-.1.3 0 .5.1.699.4l10.692 14.988zm-7.494-6.395l-4.596 6.395c-.3.4-.2.899.2 1.099.2.1.4.2.5.1.3 0 .5-.1.699-.4l4.197-5.895-1-1.299zm2.897-1.2l4.596-6.395c.3-.4.2-.899-.2-1.099-.4-.3-.899-.2-1.199.2L90.23 9.593l.999 1.398z"/></svg>