<svg xmlns="http://www.w3.org/2000/svg" width="580" height="108" fill="none"><path fill="#fff" d="M57.194 104.826 23.116 61.864v42.962H0V11.379h23.116v40.28l31.938-40.28H83.92L46.24 57.031l39.955 47.795h-29ZM195.039 104.826c-5.702-1.428-10.78-3.492-15.234-6.174V75.425c4.367 2.508 9.753 4.77 16.166 6.777 6.413 2.008 12.028 3.024 16.838 3.024 4.272 0 7.416-.651 9.422-1.945 2.006-1.293 3.009-3.332 3.009-6.11 0-2.777-.932-4.721-2.804-6.11-1.872-1.389-5.126-2.706-9.754-3.96l-5.346-1.476c-6.058-1.61-11.025-3.404-14.903-5.372s-6.974-4.61-9.288-7.92c-2.314-3.308-3.475-7.61-3.475-12.886 0-9.134 3.207-16.45 9.62-21.95 6.413-5.507 15.858-8.26 28.328-8.26 5.521 0 10.599.563 15.235 1.682 4.628 1.119 8.466 2.706 11.491 4.77v21.48c-4.012-2.238-8.664-4.142-13.963-5.705-5.299-1.564-10.085-2.35-14.366-2.35-7.574 0-11.356 2.508-11.356 7.516 0 2.237.931 3.943 2.803 5.102 1.872 1.166 5.078 2.325 9.619 3.492l5.347 1.34c6.144 1.524 11.199 3.294 15.163 5.301 3.965 2.016 7.124 4.904 9.486 8.658 2.361 3.761 3.538 8.681 3.538 14.768 0 9.49-3.096 17.14-9.288 22.957-6.192 5.816-15.614 8.728-28.265 8.728-6.326 0-12.337-.714-18.039-2.15h.016ZM356.98 104.826h-22.982V49.104l-25.391 44.041h-.403l-25.257-43.771v55.452h-21.915V11.379h24.853l22.848 40.28 22.848-40.28h25.391v93.447h.008ZM387.851 101.065c-7.084-3.936-12.58-9.602-16.506-16.982-3.925-7.388-5.875-16.045-5.875-25.98 0-9.935 1.982-18.57 5.946-25.91 3.965-7.34 9.486-12.997 16.57-16.98 7.084-3.984 15.21-5.976 24.387-5.976 9.178 0 17.438 1.968 24.523 5.904 7.084 3.936 12.58 9.601 16.506 16.981 3.917 7.388 5.883 16.046 5.883 25.98 0 9.936-1.982 18.577-5.947 25.917-3.964 7.34-9.485 13.006-16.569 16.982-7.084 3.984-15.211 5.975-24.388 5.975-9.177 0-17.438-1.968-24.522-5.903l-.008-.008Zm41.889-23.56c4.368-4.785 6.547-11.253 6.547-19.402 0-8.15-2.187-14.61-6.547-19.402-4.367-4.785-10.156-7.182-17.374-7.182-7.219 0-13.008 2.397-17.375 7.182-4.368 4.793-6.547 11.26-6.547 19.402 0 8.141 2.179 14.616 6.547 19.401 4.367 4.793 10.156 7.182 17.375 7.182 7.218 0 13.007-2.397 17.374-7.182ZM481.185 104.826c-5.702-1.428-10.78-3.492-15.234-6.174V75.425c4.367 2.508 9.753 4.77 16.166 6.777 6.413 2.016 12.028 3.024 16.838 3.024 4.28 0 7.416-.651 9.422-1.945 2.006-1.293 3.009-3.332 3.009-6.11 0-2.777-.932-4.721-2.804-6.11-1.872-1.389-5.125-2.706-9.753-3.96l-5.347-1.476c-6.058-1.61-11.025-3.404-14.903-5.372s-6.974-4.61-9.288-7.92c-2.314-3.308-3.474-7.61-3.474-12.886 0-9.134 3.206-16.45 9.619-21.95 6.413-5.507 15.858-8.26 28.329-8.26 5.52 0 10.598.563 15.234 1.682 4.628 1.119 8.458 2.706 11.491 4.77v21.48c-4.012-2.238-8.664-4.142-13.963-5.705-5.299-1.564-10.085-2.35-14.366-2.35-7.573 0-11.356 2.508-11.356 7.516 0 2.237.931 3.943 2.803 5.102 1.872 1.166 5.078 2.325 9.619 3.492l5.347 1.34c6.145 1.524 11.199 3.294 15.164 5.301 3.964 2.016 7.123 4.904 9.485 8.658 2.361 3.761 3.538 8.681 3.538 14.768 0 9.49-3.096 17.14-9.288 22.957-6.192 5.816-15.613 8.728-28.265 8.728-6.326 0-12.336-.714-18.039-2.15h.016Z"/><path fill="#fff" fill-rule="evenodd" d="M580 15.347v.262c0 5.063-2.433 9.808-6.547 12.728V2.881A15.612 15.612 0 0 1 580 15.347ZM564.473 0c1.896 0 3.775.35 5.552 1.024V13.83h-12.754a1.725 1.725 0 0 0-1.619 1.722v12.911a15.603 15.603 0 0 1-6.721-12.601v-.254c0-8.523 6.8-15.466 15.274-15.609h.268Zm5.552 17.283v12.911c-1.69.65-3.483 1-5.291 1.024h-.261c-1.832 0-3.656-.326-5.378-.96V17.29h10.93v-.008Z" clip-rule="evenodd"/><path fill="#fff" d="M165.937 33.154c-3.918-7.388-9.422-13.046-16.506-16.982-7.085-3.936-15.259-5.904-24.522-5.904-9.264 0-17.304 1.992-24.388 5.976-7.084 3.983-12.605 9.649-16.57 16.981-3.964 7.34-5.946 15.974-5.946 25.91 0 9.934 1.958 18.592 5.876 25.98 3.917 7.387 9.421 13.045 16.505 16.981 7.085 3.936 15.259 5.904 24.523 5.904 9.263 0 17.303-1.992 24.387-5.975 7.084-3.984 12.605-9.642 16.569-16.982 3.965-7.34 5.947-15.974 5.947-25.917 0-9.943-1.958-18.592-5.875-25.98v.008ZM134.559 68.83l-9.65 33.622-9.651-33.622-33.462-9.697 33.462-9.689 9.651-33.622 9.65 33.622 33.463 9.69-33.463 9.696Z"/></svg>