<svg xmlns="http://www.w3.org/2000/svg" style="display:none">
<symbol id="accessible-parking" viewBox="0 0 24 24"><path d="M6.46 10.8h2.75c2.42 0 3.8-1.23 3.8-3.38 0-2.95-2.59-3.27-3.71-3.27h-5v10.11h2.16zm0-4.62h2.47c1.36 0 1.64.72 1.64 1.32 0 .93-.57 1.44-1.61 1.44h-2.5z"/><path d="M22.27 1H1.76a.74.74 0 0 0-.76.72v20.52a.74.74 0 0 0 .73.75h20.51a.74.74 0 0 0 .75-.73V1.76a.74.74 0 0 0-.72-.76m-.78 20.48h-19v-19h19z"/><path d="M15.24 11.32a1.44 1.44 0 1 0 0-2.88 1.44 1.44 0 0 0 0 2.88m.7 1.25a.75.75 0 1 0-1.5 0v3.27a.4.4 0 0 0 0 .16.76.76 0 0 0 .75.75h3.46l.62 1.25a.75.75 0 0 0 1 .3.74.74 0 0 0 .33-.95L19.94 16a1.28 1.28 0 0 0-1.14-.7h-2.86v-.76h1.61a.75.75 0 1 0 0-1.5h-1.61z"/><path d="M12.77 14.77a3.5 3.5 0 0 0-1.08 2.49 3.45 3.45 0 0 0 6.71 1.11.74.74 0 0 0-.45-.95.77.77 0 0 0-1 .43 2 2 0 0 1-1.84 1.32 1.3 1.3 0 0 1-.4 0 2 2 0 0 1-.93-3.34.75.75 0 1 0-.85-1.23.5.5 0 0 0-.16.17"/></symbol>
<symbol id="accessible-toilets" viewBox="0 0 24 24"><path d="M8.23 6.39a2.75 2.75 0 1 0-2.74-2.75 2.74 2.74 0 0 0 2.74 2.75m0-4a1.25 1.25 0 1 1-.468.1 1.3 1.3 0 0 1 .478-.1zm8.67 12.5a1.72 1.72 0 0 0-1.57-1h-2a6 6 0 0 0-5.05-2.78c-.43-.004-.86.04-1.28.13V9a1.5 1.5 0 0 1 .17-.72h2.1a1.2 1.2 0 0 1 .17.72v.83a.75.75 0 1 0 1.5 0V9c0-1.27-.68-2.22-1.57-2.22H7.05c-.9 0-1.57 1-1.57 2.22v2.81a6 6 0 1 0 8.7 5.78h.07l.85 1.6a1.87 1.87 0 0 0 1.66 1.06 1.71 1.71 0 0 0 1.46-2.6zM8.23 21.6a4.48 4.48 0 1 1 4.49-4.48 4.49 4.49 0 0 1-4.49 4.48m8.61-2.87a.35.35 0 0 1-.39-.22l-1.07-2a.77.77 0 0 0-.66-.4h-.6a2.6 2.6 0 0 0-.15-.67h1.36a.22.22 0 0 1 .22.13l1.33 2.76c.12.17.12.35-.04.4"/><path d="M3.05 11.3a.75.75 0 1 0 1.5 0V7.53a.76.76 0 0 0-.75-.75H2.05a.75.75 0 0 0 0 1.5h1zm14.56-7.63L16.72 1h-.66l-.88 2.69L14.46 1H13.2l1.43 4.44h.86l.85-2.37.84 2.37h.86L19.48 1h-1.17zM21.8 2a1.84 1.84 0 0 1 1.2.36V1.22a2.59 2.59 0 0 0-2.42 0 2 2 0 0 0-.77.81 2.7 2.7 0 0 0-.27 1.23 2.8 2.8 0 0 0 .27 1.24 2 2 0 0 0 .77.8 2.59 2.59 0 0 0 2.42 0V4.13a1.9 1.9 0 0 1-1.16.35 1.17 1.17 0 0 1-.88-.33 1.32 1.32 0 0 1-.32-.93 1.28 1.28 0 0 1 .32-.92 1.15 1.15 0 0 1 .84-.3"/></symbol>
<symbol id="accessible" viewBox="0 0 24 24"><path d="M10.38 6.39a2.75 2.75 0 1 0-2.74-2.75 2.74 2.74 0 0 0 2.74 2.75m0-4a1.25 1.25 0 1 1-.47.096 1.3 1.3 0 0 1 .48-.096zm10.01 15.28-1.33-2.76a1.74 1.74 0 0 0-1.57-1h-2.06a6 6 0 0 0-5-2.78c-.42-.002-.84.042-1.25.13V9a1.3 1.3 0 0 1 .18-.72h2.1c.12.22.18.47.17.72v.83a.75.75 0 1 0 1.5 0V9c0-1.27-.67-2.22-1.57-2.22H9.21c-.89 0-1.57 1-1.57 2.22v2.81a6 6 0 1 0 8.7 5.78h.08l.85 1.6a1.85 1.85 0 0 0 1.65 1.06 1.7 1.7 0 0 0 1.47-2.58m-10 3.93a4.48 4.48 0 1 1 4.48-4.48 4.49 4.49 0 0 1-4.49 4.53zM19 18.73a.35.35 0 0 1-.4-.22l-1.07-2a.75.75 0 0 0-.66-.4h-.6a2.6 2.6 0 0 0-.15-.67h1.36a.26.26 0 0 1 .23.13L19 18.31c.13.19.11.37 0 .42"/><path d="M5.21 11.3a.75.75 0 1 0 1.5 0V7.53A.75.75 0 0 0 6 6.78H4.16a.75.75 0 0 0 0 1.5h1z"/></symbol>
<symbol id="advice" viewBox="0 0 24 24"><path d="M17.486.903a5.37 5.37 0 0 0-4.33 8.55c-.105.263-.21.532-.303.775-.106.275-.194.51-.251.632a.86.86 0 0 0-.128.802c.161.467.622.703 1.37.703a5.3 5.3 0 0 0 2.077-.87 6 6 0 0 0 1.565.15 5.371 5.371 0 0 0 0-10.742m0 9.242A3.3 3.3 0 0 1 16.185 10a.75.75 0 0 0-.75.03c-.394.25-.828.492-1.15.651.132-.338.28-.722.425-1.051a.75.75 0 0 0-.126-.795 3.87 3.87 0 1 1 2.902 1.31m-3.106 9.399a19 19 0 0 0-3.43-1.663.15.15 0 0 1-.092-.139l-.003-.31a.4.4 0 0 1 .124-.285 3.75 3.75 0 0 0 1.084-2.682l-.013-1.479a3.79 3.79 0 0 0-3.786-3.75h-.008a3.79 3.79 0 0 0-3.786 3.75l-.014 1.48a3.75 3.75 0 0 0 1.084 2.68.4.4 0 0 1 .125.286l-.003.31a.15.15 0 0 1-.092.14l-.069.027-.004.002a18.7 18.7 0 0 0-3.357 1.632 3.2 3.2 0 0 0-1.06 2.69.75.75 0 0 0 .744.756h.006a.75.75 0 0 0 .75-.744c.005-.65.044-1.175.487-1.523a13 13 0 0 1 2.152-1.07 3.19 3.19 0 0 0 2.963 2.188h.116a3.185 3.185 0 0 0 2.96-2.206 13.4 13.4 0 0 1 2.196 1.089c.442.348.482.872.487 1.522a.75.75 0 0 0 .75.744h.006a.75.75 0 0 0 .744-.755 3.19 3.19 0 0 0-1.061-2.69m-6.089.796H8.19a1.69 1.69 0 0 1-1.594-1.363 1.65 1.65 0 0 0 .567-1.221l.003-.31a1.9 1.9 0 0 0-.554-1.35 2.26 2.26 0 0 1-.655-1.617L5.97 13a2.29 2.29 0 0 1 2.273-2.265h.043A2.29 2.29 0 0 1 10.55 13l.014 1.48a2.27 2.27 0 0 1-.654 1.617 1.9 1.9 0 0 0-.554 1.35l.003.308a1.64 1.64 0 0 0 .524 1.177A1.72 1.72 0 0 1 8.29 20.34Z"/></symbol>
<symbol id="all-purpose-knife" viewBox="0 0 24 24"><path fill-rule="evenodd" d="m13.2 1.7-.8-.7-.4 1a13 13 0 0 0-.4.8 21 21 0 0 0-.7 2.4c-.5 2-1 5-.8 8.8v.6l.6.1a1 1 0 0 1 .3.1v9h3.6V6.3a9.5 9.5 0 0 0-.4-2.8 3.9 3.9 0 0 0-1-1.9Zm-.7 13.5h.6v7h-.6zm.6-1.5V6.4a8 8 0 0 0-.3-2.4l-.5 1.5c-.4 1.9-.8 4.5-.7 8l.4.2h1Z" clip-rule="evenodd"/></symbol>
<symbol id="altmoebel-entsorgung" viewBox="0 0 24 24"><path d="M22.009 11.738a.774.774 0 0 0-.838-.676l-10.43.941a.75.75 0 0 0-.68.816l.805 8.866a.75.75 0 0 0 .747.682h.045l9.73-.88.076.843 1.494-.136Zm-1.426.883.187 2.054-8.885 1.626-.261-2.871Zm-8.29 8.186-.272-3.007 8.884-1.626.347 3.819Z"/><path d="M15.53 14.85a1.4 1.4 0 0 0 .289.2 1 1 0 0 0 .35.06.9.9 0 0 0 .34-.06 1.2 1.2 0 0 0 .3-.2.9.9 0 0 0 .19-.29.8.8 0 0 0 .07-.35.8.8 0 0 0-.069-.34 1 1 0 0 0-.19-.3.95.95 0 0 0-1.28 0 1 1 0 0 0-.19.3.8.8 0 0 0-.07.34.9.9 0 0 0 .26.64m1.87 3.62a.8.8 0 0 0-.19-.29 1 1 0 0 0-.29-.2.92.92 0 0 0-.69 0 .9.9 0 0 0-.29.2.7.7 0 0 0-.2.29.8.8 0 0 0-.07.34.86.86 0 0 0 .27.64.87.87 0 0 0 .63.27 1 1 0 0 0 .351-.07.9.9 0 0 0 .29-.199.88.88 0 0 0 .26-.64.8.8 0 0 0-.072-.341Zm-5.945-7.313a.75.75 0 1 0 .926-1.18 16 16 0 0 0-2.636-1.369l-.003-.273a.27.27 0 0 1 .084-.189 3.4 3.4 0 0 0 .981-2.427l-.012-1.304a3.43 3.43 0 0 0-3.321-3.394l-.072-.002h-.033l-.072.002a3.43 3.43 0 0 0-3.322 3.394l-.012 1.304a3.4 3.4 0 0 0 .98 2.427.27.27 0 0 1 .085.189L5 8.649l-.061.026-.006.002a15.3 15.3 0 0 0-2.979 1.45 2.9 2.9 0 0 0-.97 2.44.75.75 0 0 0 .744.757l.007.001a.75.75 0 0 0 .75-.744c.005-.55.037-.993.395-1.275a11 11 0 0 1 1.791-.894 2.91 2.91 0 0 0 2.666 1.898h.103a2.905 2.905 0 0 0 2.655-1.887 8 8 0 0 1 1.36.734m-4.111-.347A1.4 1.4 0 0 1 6.03 9.727a1.53 1.53 0 0 0 .495-1.105l.003-.273a1.76 1.76 0 0 0-.514-1.253 1.9 1.9 0 0 1-.551-1.364l.012-1.303a1.91 1.91 0 0 1 3.82 0l.012 1.303a1.9 1.9 0 0 1-.551 1.364 1.76 1.76 0 0 0-.514 1.253l.002.273a1.53 1.53 0 0 0 .496 1.105 1.42 1.42 0 0 1-1.396 1.083"/></symbol>
<symbol id="analog-scale" viewBox="0 0 24 24"><path d="M13.798 14.032a.75.75 0 0 0-1.096-1.024l-1.13 1.21a.75.75 0 1 0 1.096 1.024z"/><path fill-rule="evenodd" d="M7.84 14.73a4.28 4.28 0 1 1 8.56 0 4.28 4.28 0 0 1-8.56 0m4.28-2.78a2.78 2.78 0 1 0 0 5.56 2.78 2.78 0 0 0 0-5.56" clip-rule="evenodd"/><path fill-rule="evenodd" d="M19.16 1.8H4.64v.75c0 2.085 1.133 3.88 2.848 5.019a4.57 4.57 0 0 0-3.238 4.36v8.521A1.75 1.75 0 0 0 6 22.2h12a1.75 1.75 0 0 0 1.75-1.75v-8.522a4.57 4.57 0 0 0-3.378-4.4c1.681-1.14 2.788-2.918 2.788-4.978zM11.9 8.87h3.272a3.07 3.07 0 0 1 3.078 3.061v8.519a.25.25 0 0 1-.25.25H6a.25.25 0 0 1-.25-.25v-8.519A3.07 3.07 0 0 1 8.828 8.87zm.012-1.5c2.965-.005 5.251-1.843 5.677-4.07H6.21c.426 2.227 2.712 4.065 5.677 4.07h.024Z" clip-rule="evenodd"/></symbol>
<symbol id="anti-slip-mat" viewBox="0 0 24 24"><path d="M23.14 23.3v-1.05H24v-1.5h-.86V19.7H24v-1.5H5.24V0h-.58a.7.7 0 0 0-.2 0H2a.75.75 0 1 0 0 1.5h1.74v1.06H2a.75.75 0 1 0 0 1.5h1.74v1.1H2a.75.75 0 1 0 0 1.5h1.74v1.11H2a.75.75 0 1 0 0 1.5h1.74v1.12H2a.75.75 0 1 0 0 1.5h1.74V13H2a.75.75 0 1 0 0 1.5h1.74v1h-1.9a.75.75 0 0 0-.75.75V24h3.1a.57.57 0 0 0 .42 0h2.15q.105.015.21 0 .105.015.21 0h2.16a.7.7 0 0 0 .2 0q.105.015.21 0h2.16a.7.7 0 0 0 .2 0 .7.7 0 0 0 .2 0h2.18q.095.015.19 0a.7.7 0 0 0 .2 0H17q.105.017.21 0a.7.7 0 0 0 .19 0h2.2a.45.45 0 0 0 .4 0h2.2q.09.015.18 0 .09.015.18 0H24v-.7zm-1.5 0h-1.07v-1.05h1.07zm-18-2.54H2.58v-1.05h1.07zm-1.07 1.5h1.08v1H2.58zm13.92-1.5h-1.06V19.7h1.07zM18 19.7h1.07v1.05H18zm-4.08 1.06h-1.06V19.7h1.08zm-2.57 0h-1.06V19.7h1.07zm-2.57 0H7.72v-1.05h1.07zm0 1.5v1H7.72v-1zm-2.57 1H5.15v-1h1.07zm4.07-1h1.07v1h-1.06zm2.57 1v-1h1.07v1zm2.57 0v-1h1.08v1zm2.57 0v-1h1.07v1.04H18zm3.64-2.55h-1.05V19.7h1.07zm-15.42-1v1.05H5.15v-1.05zM3.74 17v1.25H2.59V17z"/><path d="M8.63 16.54H24v-1.5H9.38V0h-1.5v15.79a.76.76 0 0 0 .75.75"/></symbol>
<symbol id="armchair-single" viewBox="0 0 24 24"><path d="M5 6.7a.75.75 0 0 0 1.5 0V3.16a.8.8 0 0 1 .13-.49.9.9 0 0 1 .6-.17h9.63a.67.67 0 0 1 .73.73V6.7a.75.75 0 1 0 1.5 0V3.23A2.16 2.16 0 0 0 16.82 1H7.19a2.2 2.2 0 0 0-1.72.68A2.13 2.13 0 0 0 5 3.23zm15 1.94a3 3 0 0 0-2.23.83 2.8 2.8 0 0 0-.74 1.9v2.22H6.88v-2.22A2.74 2.74 0 0 0 4 8.64a2.79 2.79 0 0 0-3 2.73v7.91a.76.76 0 0 0 .75.75h20.5a.76.76 0 0 0 .75-.75v-7.92a2.79 2.79 0 0 0-3-2.72m1.47 9.89H2.5v-7.14A1.28 1.28 0 0 1 4 10.14a1.24 1.24 0 0 1 1.41 1.23v3a.76.76 0 0 0 .75.75h11.65a.76.76 0 0 0 .75-.75v-3a1.35 1.35 0 0 1 .33-.85 1.56 1.56 0 0 1 1.11-.38c1.32 0 1.46 1 1.47 1.23zM1.75 21.5a.75.75 0 1 0 0 1.5h4a.75.75 0 1 0 0-1.5zm20.5 0H18.3a.75.75 0 1 0 0 1.5h3.95a.75.75 0 1 0 0-1.5"/></symbol>
<symbol id="armchair" viewBox="0 0 24 24"><path d="M4.57 5.78h6.646a1.757 1.757 0 0 1 1.789 1.788v2.054a.75.75 0 0 1-1.5 0v-2.08a.256.256 0 0 0-.263-.263H4.53a1 1 0 0 1-.093-.005.174.174 0 0 0-.194.194 1 1 0 0 1 .006.093v2.061a.75.75 0 0 1-1.5 0V7.6a1.674 1.674 0 0 1 1.82-1.82zm8.903 5.151a2.175 2.175 0 0 1 2.28 2.127v5.498a.75.75 0 0 1-.75.75H.75a.75.75 0 0 1-.75-.75v-5.522a2.175 2.175 0 0 1 2.297-2.102 2.136 2.136 0 0 1 2.25 2.122v1.316h6.614v-1.308a2.12 2.12 0 0 1 2.312-2.13zm-.112 1.497a.62.62 0 0 0-.7.622v2.07a.75.75 0 0 1-.75.75H3.798a.75.75 0 0 1-.75-.75v-2.06a.637.637 0 0 0-.69-.629 1 1 0 0 1-.126 0 .674.674 0 0 0-.732.641v4.734h12.753v-4.734a.676.676 0 0 0-.732-.64 1 1 0 0 1-.16-.004M0 20.618a.75.75 0 0 1 .75-.75h2.749a.75.75 0 0 1 0 1.5H.75a.75.75 0 0 1-.75-.75m11.505 0a.75.75 0 0 1 .75-.75h2.748a.75.75 0 0 1 0 1.5h-2.748a.75.75 0 0 1-.75-.75m5.497 0a.75.75 0 0 1 .75-.75h4.124a.75.75 0 0 1 0 1.5h-4.124a.75.75 0 0 1-.75-.75m-.335-17.98A.75.75 0 0 1 17.41 2h4.81a.75.75 0 0 1 .742.639l1.03 6.872a.75.75 0 0 1-.741.861h-6.872a.75.75 0 0 1-.742-.861zm1.388.862-.806 5.372h5.13L21.573 3.5z"/><path d="M19.814 10.934a.75.75 0 0 1 .75.75v8.934a.75.75 0 0 1-1.5 0v-8.934a.75.75 0 0 1 .75-.75"/></symbol>
<symbol id="arrow-circle" viewBox="0 0 24 24"><path d="M81.3 47.6c0-.8 0-1.6-.1-2.4-.3-4.5-1.4-9-3.2-13.1-3.3-7.3-8.9-13.5-15.8-17.4Q57.4 12 52 10.8c-4-.9-8.2-1.1-12.2-.6-4.3.5-8.4 1.7-12.3 3.7-4.2 2.1-7.9 5-11 8.4-3.3 3.5-5.8 7.7-7.5 12.3-1.6 4.6-2.4 9.5-2.2 14.4.2 4.7 1.2 9.4 3.1 13.7C13 69.9 18.4 76 25.1 80.1c3.1 1.9 6.5 3.3 10.1 4.2 4 1 8.2 1.3 12.3.9 3.8-.4 7.5-1.3 11-2.8 4.7-2 8.9-5 12.5-8.7l.2-.2c.7-.5 1.5-.9 2.4-.8.4 0 .9.1 1.2.3 1.4.7 2.2 2.2 1.9 3.8-.1.5-.4 1-.7 1.5-.3.4-.6.7-1 1-1.6 1.5-3.2 3-4.9 4.3-4 3-8.5 5.3-13.2 6.7-5.6 1.7-11.6 2.3-17.4 1.7-5.6-.6-11-2.2-16-4.9-4.8-2.6-9.2-6.1-12.8-10.3C7.5 73 4.8 68.6 3 64 1.4 59.8.5 55.4.1 51c-.4-4.7 0-9.4 1.1-14 1.2-4.9 3.2-9.6 6-13.9 4.2-6.4 10-11.7 16.8-15.2 4-2.1 8.3-3.5 12.8-4.3 2-.3 4.1-.5 6.1-.6h1.7c5 .1 9.9 1 14.6 2.7 6.2 2.3 11.8 6 16.4 10.7 4.5 4.6 7.9 10.2 10 16.3 1.7 4.8 2.5 9.7 2.5 14.8H94c.8 0 1.5.5 1.8 1.2s.2 1.6-.2 2.2c-2.8 3.5-7 8.9-9.3 11.8-.4.5-1 .8-1.6.8s-1.2-.3-1.6-.8c-2.3-2.9-6.5-8.3-9.3-11.8-.5-.6-.6-1.5-.2-2.2.3-.7 1.1-1.2 1.8-1.2h5.9z"/></symbol>
<symbol id="bathroom-scale" viewBox="0 0 24 24"><path fill-rule="evenodd" d="M11.88 2.43c-1.586 0-2.872 1.268-2.872 2.833 0 1.564 1.286 2.832 2.872 2.832s2.871-1.268 2.871-2.832a2.8 2.8 0 0 0-.202-1.047 2.87 2.87 0 0 0-2.67-1.786Zm3.836.868A4.33 4.33 0 0 0 11.88 1a4.33 4.33 0 0 0-3.837 2.298H3.358a2.4 2.4 0 0 0-1.764.789 2.33 2.33 0 0 0-.578 1.82v.002l1.692 14.983a2.3 2.3 0 0 0 .761 1.48 2.37 2.37 0 0 0 1.575.6h6.062a.7.7 0 0 0 .203.028h7.604a2.4 2.4 0 0 0 1.569-.621c.426-.388.694-.917.753-1.486l1.75-14.986v-.002a2.32 2.32 0 0 0-.591-1.825 2.4 2.4 0 0 0-.802-.578 2.4 2.4 0 0 0-.971-.204zm.452 1.43q.034.264.034.535c0 2.354-1.935 4.262-4.322 4.262S7.557 7.617 7.557 5.263q0-.272.034-.534H3.363a.93.93 0 0 0-.682.305.9.9 0 0 0-.224.707v.005L4.15 20.744c.023.218.127.42.292.568s.38.229.602.229h7.474q.106 0 .204.028h6.17a.94.94 0 0 0 .606-.242.9.9 0 0 0 .295-.582v-.01l1.75-14.99h.001a.9.9 0 0 0-.23-.711.93.93 0 0 0-.693-.305z" clip-rule="evenodd"/></symbol>
<symbol id="bathtub-reduced" viewBox="0 0 24 24"><path d="M93.9 37.5c1.2 0 2.1.9 2.1 2.1v16.7c0 12.9-8.9 23.7-20.9 26.5v7c0 1.2-.9 2.1-2.1 2.1h-8.3c-1.2 0-2.1-.9-2.1-2.1v-6.3h-25v6.3c0 1.2-.9 2.1-2.1 2.1h-8.3c-1.2 0-2.1-.9-2.1-2.1v-6.4C11.1 82.5 0 70.7 0 56.3V39.6c0-1.2.9-2.1 2.1-2.1h85.6V12.4c0-2.3-1.9-4.2-4.2-4.2s-4.2 1.9-4.2 4.2v.3c3.6.9 6.3 4.2 6.3 8.1v2.1c0 1.2-.9 2.1-2.1 2.1H71c-1.2 0-2.1-.9-2.1-2.1v-2.1c0-3.9 2.7-7.2 6.2-8.1v-.3c0-4.6 3.7-8.4 8.3-8.4s8.3 3.8 8.3 8.4v25.1zM81.4 20.7c0-2.3-1.9-4.2-4.2-4.2S73 18.4 73 20.7zm10.4 25.2v-4.2H4.2v4.2h6.2c1.2 0 2.1.9 2.1 2.1s-.9 2.1-2.1 2.1H4.2v6.2c0 12.7 10.3 23.1 23 23.1h41.6c12.7 0 23-10.4 23-23.1v-6.2h-69c-1.2 0-2.1-.9-2.1-2.1s.9-2.1 2.1-2.1zM29.3 83.6v4.2h4.2v-4.2zm37.5 0v4.2H71v-4.2zM73 27c1.2 0 2.1.9 2.1 2.1v4.2c0 1.2-.9 2.1-2.1 2.1s-2.1-.9-2.1-2.1v-4.2C71 28 71.9 27 73 27m8.4 0c1.2 0 2.1.9 2.1 2.1v4.2c0 1.2-.9 2.1-2.1 2.1s-2.1-.9-2.1-2.1v-4.2c0-1.1.9-2.1 2.1-2.1M18.1 46.5q.6.6.6 1.5c0 .9-.2 1.1-.6 1.5q-.6.6-1.5.6c-.5 0-1.1-.2-1.5-.6q-.6-.6-.6-1.5c0-.9.2-1.1.6-1.5q.6-.6 1.5-.6c.5 0 1.1.2 1.5.6"/></symbol>
<symbol id="bathtub-with-shower" viewBox="0 0 24 24"><path d="M4.71 11.9a.76.76 0 0 0 .75-.75v-9.6h4.06v.52a.3.3 0 0 0 0 .09A3.53 3.53 0 0 0 7 5.66a.76.76 0 0 0 .75.75h5.12a.76.76 0 0 0 .75-.75A3.53 3.53 0 0 0 11 2.16a.3.3 0 0 0 0-.09V.8a.76.76 0 0 0-.75-.75H4.71A.76.76 0 0 0 4 .8v10.35a.76.76 0 0 0 .71.75m7.25-7H8.58a1.84 1.84 0 0 1 1.69-1.35A1.84 1.84 0 0 1 12 4.91zm10.32 8.51H20a.76.76 0 0 0-.75-.75h-4.84a.76.76 0 0 0-.75.75H1.79a.76.76 0 0 0-.75.75v4.21a4.6 4.6 0 0 0 3.9 4.12v.81a.75.75 0 1 0 1.5 0v-.76h11.19v.76a.75.75 0 1 0 1.5 0v-.81A4.6 4.6 0 0 0 23 18.37v-4.21a.76.76 0 0 0-.72-.75m-7.12.75h3.38V18h-3.38zm6.37 4.21A3.1 3.1 0 0 1 18.74 21H5.33a3.1 3.1 0 0 1-2.79-2.67v-3.42h11.12v3.88a.76.76 0 0 0 .75.75h4.88a.76.76 0 0 0 .75-.75v-3.88h1.49z"/><path d="M9.02 8.91a.75.75 0 1 0 0-1.5.75.75 0 0 0 0 1.5m2.5 0a.75.75 0 1 0 0-1.5.75.75 0 0 0 0 1.5m-2.5 2.5a.75.75 0 1 0 0-1.5.75.75 0 0 0 0 1.5m2.5 0a.75.75 0 1 0 0-1.5.75.75 0 0 0 0 1.5"/></symbol>
<symbol id="check-circle-filled" viewBox="0 0 24 24"><path d="M48 0C21.5 0 0 21.5 0 48s21.5 48 48 48 48-21.5 48-48S74.5 0 48 0m25.7 33.3-.3.4-33.7 33.6c-1.3 1.3-3.3 1.4-4.7.3l-.4-.3-14.3-14.4c-1.4-1.4-1.4-3.7 0-5.1 1.3-1.3 3.3-1.4 4.7-.3l.4.3 11.9 11.9 31.1-31.1c1.4-1.4 3.7-1.4 5.1 0 1.1 1.3 1.2 3.3.2 4.7"/></symbol>
<symbol id="check-thin" viewBox="0 0 24 24"><path d="M3.75 7.69 10.72.72a.75.75 0 0 1 1.06 1.06l-7.5 7.5a.75.75 0 0 1-1.06-1.06zl.53.53a.75.75 0 0 1-1.06 1.06l-3-3a.75.75 0 0 1 1.06-1.06z"/></symbol>
<symbol id="check" viewBox="0 0 24 24"><path d="M10.7 14.4 16.9 7c.3-.4.9-.4 1.3-.1s.4.9.1 1.3l-6.9 8.1c-.4.4-1 .4-1.4.1l-3.8-3.8c-.4-.4-.4-1 0-1.3.4-.4 1-.4 1.3 0z"/></symbol>
<symbol id="coffee-cup" viewBox="0 0 24 24"><path d="M21.54 12.15a.74.74 0 0 0-.74-.65h-2.14v-1.38a.75.75 0 0 0-.75-.75H5.49a.75.75 0 0 0-.75.75v6.3a7 7 0 0 0 13.52 2.32 3.15 3.15 0 0 0 2.14-1.06c1.6-1.83 1.16-5.38 1.14-5.53m-9.84 9.73a5.47 5.47 0 0 1-5.46-5.46v-5.55h10.92v5.55a5.47 5.47 0 0 1-5.46 5.46m7.57-5.18a1.8 1.8 0 0 1-.64.45V13h1.45c.07 1.08-.03 2.81-.81 3.7M12.76 4a2.37 2.37 0 0 0-.87 2 3.39 3.39 0 0 0 1.66 2.51.75.75 0 0 0 .763.029.74.74 0 0 0 .267-.25.75.75 0 0 0-.21-1 2 2 0 0 1-1-1.35.91.91 0 0 1 .36-.77A3 3 0 0 0 15 3 3.09 3.09 0 0 0 13.7.71a.75.75 0 1 0-1 1.12c.53.46.8.86.8 1.14s-.23.6-.74 1.03m-3.51.12a2.25 2.25 0 0 0 .24 3.17.762.762 0 1 0 1-1.15.732.732 0 0 1 0-1.09l.1-.13c.87-1.11 1.86-2.38-.24-4.21a.73.73 0 0 0-1.15.32.73.73 0 0 0 .22.8c1 .91.89 1.08 0 2.17z"/></symbol>
<symbol id="coffee-maker" viewBox="0 0 24 24"><path d="M5.7 4.32a.73.73 0 0 0 .72-.73.73.73 0 0 0-1.42 0 .73.73 0 0 0 .7.73m4.1.02h4.4a.75.75 0 1 0 0-1.5H9.8a.75.75 0 0 0 0 1.5"/><path d="m22.15 13.12-1.52-1.52v-5h.46a.76.76 0 0 0 .75-.75V1.38a.75.75 0 0 0-.75-.75H2.91a.75.75 0 0 0-.75.75v4.43a.76.76 0 0 0 .75.75h.46V22.5a.76.76 0 0 0 .75.75h15.76a.76.76 0 0 0 .75-.75v-8.78l.46.46a.74.74 0 0 0 .53.22.73.73 0 0 0 .53-.22.75.75 0 0 0 0-1.06m-3.46-6.56h.44v3.54l-.44-.45zm-15-4.43h16.65v2.93H3.66zm5.24 5.54V6.56h6.14v1.11zm6.88 8.69a1.85 1.85 0 0 1-1.16 1.34c.09-.48.16-.93.2-1.34zm-4.45 4.24h-1.6c-1 0-1.85-2.4-2-4.39l5.61.09c-.2 1.87-1 4.21-2.01 4.3m7.77 1.15h-6.66a4.75 4.75 0 0 0 1.74-2.47 3.26 3.26 0 0 0 3.07-2.63 1.41 1.41 0 0 0-1.36-1.79h-1.55a.5.5 0 0 0-.22 0L7 14.7a.68.68 0 0 0-.53.21.76.76 0 0 0-.23.54c0 1.81.61 5.21 2.37 6.3H4.87V6.56h2.56v1.86a.75.75 0 0 0 .75.75h.72v.93a.75.75 0 1 0 1.5 0v-.93h3v.93a.75.75 0 1 0 1.5 0v-.93h.88a.75.75 0 0 0 .75-.75V6.56h.62V10c0 .199.08.39.22.53l1.72 1.73z"/></symbol>
<symbol id="cogs-filled" viewBox="0 0 24 24"><path d="M23.8 9.87a.74.74 0 0 0-.74-.62h-2.25a8.7 8.7 0 0 0-.63-1.54l1.59-1.59a.74.74 0 0 0 .08-1 11.8 11.8 0 0 0-3-3 .74.74 0 0 0-1 .08l-1.56 1.62a8.7 8.7 0 0 0-1.54-.63V.94a.74.74 0 0 0-.62-.74 11.3 11.3 0 0 0-4.26 0 .74.74 0 0 0-.62.74v2.25a8 8 0 0 0-1.54.63L6.12 2.23a.74.74 0 0 0-1-.08 11.8 11.8 0 0 0-3 3 .74.74 0 0 0 .08 1l1.62 1.56a8.6 8.6 0 0 0-.64 1.54H.94a.74.74 0 0 0-.74.62A12.4 12.4 0 0 0 0 12c.005.714.072 1.427.2 2.13a.74.74 0 0 0 .74.62h2.24a8.6 8.6 0 0 0 .64 1.54l-1.59 1.59a.74.74 0 0 0-.08 1 12 12 0 0 0 3 3 .74.74 0 0 0 1-.08l1.59-1.59a8.6 8.6 0 0 0 1.54.64v2.24a.74.74 0 0 0 .62.74 12.3 12.3 0 0 0 4.23-.03.74.74 0 0 0 .62-.74v-2.25a8 8 0 0 0 1.54-.63l1.59 1.59a.74.74 0 0 0 1 .08 12 12 0 0 0 3-3 .74.74 0 0 0-.08-1l-1.59-1.59q.391-.74.64-1.54h2.24a.74.74 0 0 0 .74-.62q.174-1.043.17-2.1a12.4 12.4 0 0 0-.2-2.13M12 16.5a4.5 4.5 0 1 1 4.5-4.5 4.49 4.49 0 0 1-4.5 4.5"/></symbol>
<symbol id="cogs" viewBox="0 0 24 24"><path d="M9.083 7.635A5.25 5.25 0 0 1 12 6.75 5.26 5.26 0 0 1 17.25 12a5.25 5.25 0 1 1-8.167-4.365m.834 7.483a3.75 3.75 0 1 0 4.166-6.235 3.75 3.75 0 0 0-4.166 6.235"/><path d="M23.545 9.423a.74.74 0 0 1 .255.447c.128.703.195 1.416.2 2.13q.004 1.058-.17 2.1a.74.74 0 0 1-.74.62h-2.24a9 9 0 0 1-.64 1.54l1.59 1.59a.74.74 0 0 1 .08 1 12 12 0 0 1-3 3 .74.74 0 0 1-1-.08l-1.59-1.59a8 8 0 0 1-1.54.63v2.25a.74.74 0 0 1-.62.74 12.2 12.2 0 0 1-4.23.03.74.74 0 0 1-.62-.74v-2.24a8.6 8.6 0 0 1-1.54-.64L6.15 21.8a.74.74 0 0 1-1 .08 12 12 0 0 1-3-3 .74.74 0 0 1 .08-1l1.59-1.59a8.6 8.6 0 0 1-.64-1.54H.94a.74.74 0 0 1-.74-.62A12.3 12.3 0 0 1 0 12a12.4 12.4 0 0 1 .2-2.13.74.74 0 0 1 .74-.62h2.24a8.6 8.6 0 0 1 .64-1.54L2.2 6.15a.74.74 0 0 1-.08-1 11.8 11.8 0 0 1 3-3 .74.74 0 0 1 1 .08l1.59 1.59a8 8 0 0 1 1.54-.63V.94A.74.74 0 0 1 9.87.2a11.3 11.3 0 0 1 4.26 0 .74.74 0 0 1 .62.74v2.25q.8.24 1.54.63l1.56-1.62a.74.74 0 0 1 1-.08 11.8 11.8 0 0 1 3 3 .74.74 0 0 1-.08 1l-1.59 1.59c.259.492.47 1.008.63 1.54h2.25a.74.74 0 0 1 .485.173M20.25 13.25h2.17q.076-.623.08-1.25a11 11 0 0 0-.08-1.25h-2.18a.77.77 0 0 1-.73-.57 7.6 7.6 0 0 0-.9-2.21.74.74 0 0 1 .11-.92l1.58-1.53a10.6 10.6 0 0 0-1.77-1.77L17 5.28a.74.74 0 0 1-.94.11 7.6 7.6 0 0 0-2.21-.9.77.77 0 0 1-.57-.73V1.58a9.5 9.5 0 0 0-2.5 0v2.18a.77.77 0 0 1-.57.73 7.6 7.6 0 0 0-2.21.9.74.74 0 0 1-.95-.11L5.52 3.75a10.6 10.6 0 0 0-1.77 1.77l1.53 1.56a.74.74 0 0 1 .11.92 7.8 7.8 0 0 0-.92 2.18.75.75 0 0 1-.72.57H1.58q-.076.623-.08 1.25.006.612.08 1.22h2.17a.75.75 0 0 1 .72.57c.19.78.501 1.525.92 2.21a.74.74 0 0 1-.11 1l-1.53 1.48a10.6 10.6 0 0 0 1.77 1.77l1.56-1.53a.74.74 0 0 1 .92-.11c.691.42 1.443.731 2.23.92a.75.75 0 0 1 .57.72v2.17c.83.11 1.67.11 2.5 0v-2.18a.77.77 0 0 1 .57-.73 7.6 7.6 0 0 0 2.21-.9.74.74 0 0 1 .92.11l1.48 1.5a10.6 10.6 0 0 0 1.77-1.77l-1.53-1.53a.74.74 0 0 1-.11-.92 8 8 0 0 0 .92-2.18.75.75 0 0 1 .72-.57"/></symbol>
<symbol id="color" viewBox="0 0 24 24"><path d="M45 6a3 3 0 0 1 3 3v60c0 11.598-9.402 21-21 21S6 80.598 6 69V9a3 3 0 0 1 3-3zm-3 6H12v57c0 7.953 6.19 14.46 14.014 14.968L27 84c8.284 0 15-6.716 15-15zm38.104 25.516.304.388 9.393 14.464a2.73 2.73 0 0 1-.415 3.473l-.387.304-38.815 25.208a28.9 28.9 0 0 0 3.238-8.608l30.313-19.697-7.906-12.17a2.73 2.73 0 0 1 .415-3.473l.387-.304a2.73 2.73 0 0 1 3.473.415m-22.046-27.15.486.195 16.88 8.6a2.905 2.905 0 0 1 1.465 3.42l-.195.487L53.99 67.624l.007-12.825 16.197-31.783-14.288-7.28a2.905 2.905 0 0 1-1.465-3.42l.195-.486a2.905 2.905 0 0 1 3.42-1.465z"/></symbol>
<symbol id="cookware" viewBox="0 0 24 24"><path d="M11.05 6.86v-4A1.75 1.75 0 0 0 9.3 1.08H4.81A1.94 1.94 0 0 0 2.87 3v3.86a3.88 3.88 0 0 0 3.34 3.84v11.68a.75.75 0 1 0 1.5 0V10.7a3.89 3.89 0 0 0 3.34-3.84m-3.9 2.39h-.54V2.58h.68v6.66zM4.37 6.86V3a.43.43 0 0 1 .44-.44h.3v6a2.38 2.38 0 0 1-.74-1.7m5.18 0a2.42 2.42 0 0 1-.76 1.74v-6h.51a.25.25 0 0 1 .25.24zM20.21.81a.75.75 0 0 0-.93.5L16.87 9.4a13.6 13.6 0 0 0-3 2.87c-.82 1-2.78 3.34-3.27 5a5.6 5.6 0 0 0 .21 3.85 4.22 4.22 0 0 0 2.19 2.2l.09.06h.09l.18.08c.355.1.722.15 1.09.15a4.6 4.6 0 0 0 2.41-.71 5.43 5.43 0 0 0 2.37-3.1c.49-1.64.16-4.71 0-6a12.9 12.9 0 0 0-.94-4l2.41-8.08a.75.75 0 0 0-.49-.91m-6 21.09c-.15.13-.23.12-.27.12h-.12a.4.4 0 0 1-.12-.21c-.38-1.3 1-4.74 2.53-7.75-.4 3.33-1.05 6.94-2.06 7.84zm-2.12-4.23a14.8 14.8 0 0 1 2.65-4 26 26 0 0 0-2.53 6.8 4.07 4.07 0 0 1-.16-2.8zm5.76 1.72a3.92 3.92 0 0 1-1.71 2.25c.95-2.05 1.41-5.48 1.64-8a17.1 17.1 0 0 1 .03 5.75z"/></symbol>
<symbol id="copy" viewBox="0 0 24 24"><path fill-rule="evenodd" d="M8.48 1.5a.75.75 0 0 0-.75.75V4.1a.75.75 0 0 0 1.5 0V3h9.17v14.09h-.98a.75.75 0 0 0 0 1.5h1.73a.75.75 0 0 0 .75-.75V2.25a.75.75 0 0 0-.75-.75zM4.85 5.41a.75.75 0 0 0-.75.75v15.58c0 .414.336.75.75.75h10.67a.75.75 0 0 0 .75-.75V6.16a.75.75 0 0 0-.75-.75zm.75 15.58V6.91h9.17v14.08z" clip-rule="evenodd"/></symbol>
</svg>